# xmcd
#
# Track frame offsets: 
#        150
#        10970
#        50695
#        82523
#        107161
#        151935
#        190687
#        227610
#        254564
#        292369
#        318716
#
# Disc length: 4388 seconds
#
# Revision: 1
# Processed by: cddbd v1.5.2PL0 Copyright (c) Steve Scherf et al.
# Submitted via: ExactAudioCopyFreeDBPlugin 1.0
#
DISCID=9211220b
DTITLE=Brian Bromberg - Full Circle
DYEAR=2016
DGENRE=Jazz
TTITLE0=Jazz Me Blues
TTITLE1=Full Circle
TTITLE2=Sneaky Pete
TTITLE3=Saturday Night in the Village
TTITLE4=Boomerang
TTITLE5=Havana Nights (aka Havana Nagila)
TTITLE6=Bernie's Bop
TTITLE7=Don't Stop 'til You Get Enough
TTITLE8=Naw'lins!
TTITLE9=Susumu's Blues
TTITLE10=Washington and Lee Swing
EXTD=YEAR: 2016
EXTT0=
EXTT1=
EXTT2=
EXTT3=
EXTT4=
EXTT5=
EXTT6=
EXTT7=
EXTT8=
EXTT9=
EXTT10=
PLAYORDER=
